<svg width="24" height="23" viewBox="0 0 24 23" fill="none" xmlns="http://www.w3.org/2000/svg">
<path d="M18.6904 15.2006L22.1041 18.6142M22.1041 18.6142L18.6904 22.0279M22.1041 18.6142H19.3377C18.269 18.6142 17.7346 18.6142 17.2496 18.4669C16.8202 18.3365 16.4207 18.1227 16.074 17.8378C15.6824 17.5159 15.386 17.0713 14.7932 16.1821L14.5181 15.7695M18.6904 1.5459L22.1041 4.95956M22.1041 4.95956L18.6904 8.37323M22.1041 4.95956H19.3377C18.269 4.95956 17.7346 4.95956 17.2496 5.10687C16.8202 5.23727 16.4207 5.45107 16.074 5.73602C15.6824 6.05789 15.386 6.50251 14.7932 7.39173L8.93296 16.1821C8.34014 17.0713 8.04373 17.5159 7.65211 17.8378C7.30542 18.1227 6.90594 18.3365 6.47653 18.4669C5.99149 18.6142 5.45713 18.6142 4.38841 18.6142H1.62207M1.62207 4.95956H4.38841C5.45713 4.95956 5.99149 4.95956 6.47653 5.10687C6.90594 5.23727 7.30542 5.45107 7.65211 5.73602C8.04373 6.05789 8.34014 6.5025 8.93296 7.39173L9.20799 7.80428" stroke="#FF6C86" stroke-width="1.862" stroke-linecap="round" stroke-linejoin="round"/>
</svg>
