<svg width="34" height="34" viewBox="0 0 34 34" fill="none" xmlns="http://www.w3.org/2000/svg">
<path d="M3.42851 18.0104C3.23558 17.7049 3.13911 17.5521 3.08511 17.3165C3.04455 17.1396 3.04455 16.8605 3.08511 16.6835C3.13911 16.4479 3.23558 16.2952 3.42851 15.9897C5.02283 13.4652 9.76848 7.08337 17.0006 7.08337C24.2327 7.08337 28.9783 13.4652 30.5726 15.9897C30.7656 16.2952 30.862 16.4479 30.916 16.6835C30.9566 16.8605 30.9566 17.1396 30.916 17.3165C30.862 17.5521 30.7656 17.7049 30.5726 18.0104C28.9783 20.5348 24.2327 26.9167 17.0006 26.9167C9.76848 26.9167 5.02283 20.5349 3.42851 18.0104Z" stroke="#FF6C86" stroke-width="2" stroke-linecap="round" stroke-linejoin="round"/>
<path d="M17.0006 21.25C19.3478 21.25 21.2506 19.3473 21.2506 17C21.2506 14.6528 19.3478 12.75 17.0006 12.75C14.6534 12.75 12.7506 14.6528 12.7506 17C12.7506 19.3473 14.6534 21.25 17.0006 21.25Z" stroke="#FF6C86" stroke-width="2" stroke-linecap="round" stroke-linejoin="round"/>
</svg>
