<svg width="28" height="27" viewBox="0 0 28 27" fill="none" xmlns="http://www.w3.org/2000/svg">
<path fill-rule="evenodd" clip-rule="evenodd" d="M25.0568 3.89999H5.7192L4.06695 0.938429C3.8815 0.606009 3.53065 0.399994 3.15 0.399994H1.05C0.470101 0.399994 0 0.870095 0 1.44999C0 2.02989 0.470101 2.49999 1.05 2.49999H2.53344L4.16401 5.42271L7.92451 13.7432L7.92837 13.7517L8.25959 14.4846L4.48401 18.5119C4.21254 18.8014 4.12756 19.2193 4.26438 19.5919C4.4012 19.9645 4.73644 20.2281 5.1308 20.2732L8.57219 20.6665C12.8767 21.1585 17.2233 21.1585 21.5279 20.6665L24.9692 20.2732C25.5454 20.2074 25.9591 19.6869 25.8932 19.1108C25.8274 18.5346 25.3069 18.1209 24.7308 18.1868L21.2894 18.5801C17.1433 19.0539 12.9567 19.0539 8.81064 18.5801L7.44491 18.424L10.216 15.4681C10.2428 15.4395 10.2677 15.4098 10.2907 15.3792L11.3447 15.5163C12.8216 15.7085 14.3145 15.7462 15.7992 15.6288C19.262 15.3549 22.4714 13.7071 24.7121 11.0527L25.5214 10.0939C25.5485 10.0617 25.5738 10.0279 25.5969 9.99271L27.1052 7.69412C28.1743 6.06485 27.0055 3.89999 25.0568 3.89999ZM10.3688 13.2717C10.1372 13.2415 9.93752 13.0944 9.84002 12.8825L9.83815 12.8783L6.72944 5.99999H25.0568C25.3352 5.99999 25.5022 6.30926 25.3494 6.54201L23.8758 8.78772L23.1073 9.69812C21.2285 11.9239 18.5373 13.3056 15.6336 13.5353C14.2944 13.6412 12.9478 13.6072 11.6156 13.4339L10.3688 13.2717Z" fill="#FF6C86"/>
<path d="M7.35 22.45C6.1902 22.45 5.25 23.3902 5.25 24.55C5.25 25.7098 6.1902 26.65 7.35 26.65C8.5098 26.65 9.45 25.7098 9.45 24.55C9.45 23.3902 8.5098 22.45 7.35 22.45Z" fill="#FF6C86"/>
<path d="M20.65 24.55C20.65 23.3902 21.5902 22.45 22.75 22.45C23.9098 22.45 24.85 23.3902 24.85 24.55C24.85 25.7098 23.9098 26.65 22.75 26.65C21.5902 26.65 20.65 25.7098 20.65 24.55Z" fill="#FF6C86"/>
</svg>
