<svg width="21" height="22" viewBox="0 0 21 22" fill="none" xmlns="http://www.w3.org/2000/svg">
<path d="M10.21 15.7403H10.2185M6.9768 19.5691H13.4431C14.3961 19.5691 14.8726 19.5691 15.2366 19.3836C15.5568 19.2205 15.8171 18.9601 15.9803 18.6399C16.1658 18.2759 16.1658 17.7994 16.1658 16.8464V5.27514C16.1658 4.32212 16.1658 3.84562 15.9803 3.48161C15.8171 3.16142 15.5568 2.9011 15.2366 2.73796C14.8726 2.55249 14.3961 2.55249 13.4431 2.55249H6.9768C6.02378 2.55249 5.54728 2.55249 5.18327 2.73796C4.86308 2.9011 4.60276 3.16142 4.43962 3.48161C4.25415 3.84562 4.25415 4.32212 4.25415 5.27514V16.8464C4.25415 17.7994 4.25415 18.2759 4.43962 18.6399C4.60276 18.9601 4.86308 19.2205 5.18327 19.3836C5.54728 19.5691 6.02378 19.5691 6.9768 19.5691ZM10.6354 15.7403C10.6354 15.9753 10.4449 16.1658 10.21 16.1658C9.975 16.1658 9.78454 15.9753 9.78454 15.7403C9.78454 15.5054 9.975 15.3149 10.21 15.3149C10.4449 15.3149 10.6354 15.5054 10.6354 15.7403Z" stroke="black" stroke-width="1.27624" stroke-linecap="round" stroke-linejoin="round"/>
</svg>
