<svg width="28" height="28" viewBox="0 0 28 28" fill="none" xmlns="http://www.w3.org/2000/svg">
<path d="M5.57856 23.3724C6.34505 21.5666 8.13463 20.3 10.22 20.3H17.78C19.8654 20.3 21.655 21.5666 22.4215 23.3724M19.04 10.85C19.04 13.6335 16.7835 15.89 14 15.89C11.2165 15.89 8.96002 13.6335 8.96002 10.85C8.96002 8.06651 11.2165 5.81002 14 5.81002C16.7835 5.81002 19.04 8.06651 19.04 10.85ZM26.6 14C26.6 20.9588 20.9588 26.6 14 26.6C7.04124 26.6 1.40002 20.9588 1.40002 14C1.40002 7.04124 7.04124 1.40002 14 1.40002C20.9588 1.40002 26.6 7.04124 26.6 14Z" stroke="#FF6C86" stroke-width="2.1" stroke-linecap="round" stroke-linejoin="round"/>
</svg>
