<svg width="43" height="56" viewBox="0 0 43 56" fill="none" xmlns="http://www.w3.org/2000/svg">
<path d="M39.8998 19.9724L38.9992 47.2304C38.9225 49.5649 37.9391 51.7776 36.2577 53.3989C34.5762 55.0202 32.3292 55.9225 29.9935 55.9142H12.8827C10.5484 55.9225 8.3027 55.0215 6.62154 53.4021C4.94038 51.7828 3.95596 49.5723 3.87695 47.2394L2.97638 19.9724C2.95668 19.3753 3.17499 18.7948 3.58328 18.3587C3.99157 17.9225 4.5564 17.6664 5.15351 17.6467C5.75063 17.627 6.33111 17.8453 6.76727 18.2536C7.20343 18.6619 7.45953 19.2267 7.47923 19.8238L8.3798 47.0886C8.42465 48.2525 8.91878 49.3538 9.75842 50.1611C10.5981 50.9684 11.7179 51.4189 12.8827 51.4181H29.9935C31.1598 51.4188 32.2809 50.9671 33.1208 50.1578C33.9606 49.3486 34.4538 48.2451 34.4963 47.0796L35.3969 19.8238C35.4166 19.2267 35.6727 18.6619 36.1089 18.2536C36.545 17.8453 37.1255 17.627 37.7226 17.6467C38.3197 17.6664 38.8846 17.9225 39.2929 18.3587C39.7012 18.7948 39.9195 19.3753 39.8998 19.9724ZM42.8784 10.9014C42.8784 11.4985 42.6412 12.0712 42.219 12.4934C41.7967 12.9156 41.2241 13.1528 40.627 13.1528H2.25143C1.65431 13.1528 1.08165 12.9156 0.659427 12.4934C0.237202 12.0712 0 11.4985 0 10.9014C0 10.3043 0.237202 9.73165 0.659427 9.30943C1.08165 8.8872 1.65431 8.65 2.25143 8.65H9.23084C9.9442 8.65192 10.6328 8.38836 11.1625 7.91062C11.6923 7.43288 12.0254 6.77513 12.0969 6.06536C12.2631 4.4004 13.0431 2.85693 14.2851 1.73566C15.527 0.614401 17.1419 -0.00433019 18.8152 2.28134e-05H24.061C25.7342 -0.00433019 27.3491 0.614401 28.5911 1.73566C29.833 2.85693 30.6131 4.4004 30.7792 6.06536C30.8508 6.77513 31.1839 7.43288 31.7136 7.91062C32.2434 8.38836 32.9319 8.65192 33.6453 8.65H40.6247C41.2218 8.65 41.7945 8.8872 42.2167 9.30943C42.6389 9.73165 42.8761 10.3043 42.8761 10.9014H42.8784ZM16.0054 8.65H26.8753C26.5794 7.97399 26.3859 7.25768 26.3011 6.52465C26.2454 5.9697 25.9856 5.4552 25.5721 5.08084C25.1587 4.70648 24.621 4.49892 24.0632 4.49837H18.8174C18.2597 4.49892 17.722 4.70648 17.3085 5.08084C16.8951 5.4552 16.6353 5.9697 16.5795 6.52465C16.494 7.2578 16.302 7.97411 16.0054 8.65ZM18.2726 42.7613V23.5905C18.2726 22.9933 18.0354 22.4207 17.6131 21.9985C17.1909 21.5762 16.6183 21.339 16.0211 21.339C15.424 21.339 14.8514 21.5762 14.4291 21.9985C14.0069 22.4207 13.7697 22.9933 13.7697 23.5905V42.7703C13.7697 43.3675 14.0069 43.9401 14.4291 44.3623C14.8514 44.7846 15.424 45.0218 16.0211 45.0218C16.6183 45.0218 17.1909 44.7846 17.6131 44.3623C18.0354 43.9401 18.2726 43.3675 18.2726 42.7703V42.7613ZM29.1109 42.7613V23.5905C29.1109 22.9933 28.8737 22.4207 28.4515 21.9985C28.0293 21.5762 27.4566 21.339 26.8595 21.339C26.2624 21.339 25.6897 21.5762 25.2675 21.9985C24.8453 22.4207 24.6081 22.9933 24.6081 23.5905V42.7703C24.6081 43.3675 24.8453 43.9401 25.2675 44.3623C25.6897 44.7846 26.2624 45.0218 26.8595 45.0218C27.4566 45.0218 28.0293 44.7846 28.4515 44.3623C28.8737 43.9401 29.1109 43.3675 29.1109 42.7703V42.7613Z" fill="#FF6B6B"/>
</svg>
