<svg width="25" height="26" viewBox="0 0 25 26" fill="none" xmlns="http://www.w3.org/2000/svg">
<path d="M7.4806 14.072L7.14009 13.6705C6.89539 13.3819 6.73538 13.0664 6.66005 12.7239C6.58472 12.3814 6.60308 12.0401 6.71512 11.7C6.82715 11.36 7.04308 11.0543 7.3629 10.7831C7.68967 10.506 8.02821 10.3414 8.37852 10.2893C8.7323 10.2343 9.072 10.272 9.39763 10.4022C9.72325 10.5325 10.0084 10.7419 10.2531 11.0304L10.5936 11.4319C10.8324 11.7135 10.9895 12.0255 11.0648 12.3681C11.1436 12.7076 11.127 13.0475 11.015 13.3875C10.9064 13.7246 10.6905 14.0303 10.3672 14.3044C10.0439 14.5786 9.7036 14.7447 9.34634 14.8026C8.99256 14.8576 8.65285 14.82 8.32723 14.6897C8.00161 14.5595 7.7194 14.3536 7.4806 14.072ZM7.8649 13.0558L8.20541 13.4573C8.34102 13.6172 8.49881 13.7434 8.67879 13.8358C8.86223 13.9252 9.05486 13.9621 9.25665 13.9463C9.4555 13.9271 9.64879 13.8379 9.83651 13.6787C10.0242 13.5195 10.1421 13.3449 10.19 13.1548C10.2351 12.9612 10.2267 12.7681 10.1649 12.5754C10.1031 12.3828 10.0044 12.2065 9.86881 12.0466L9.5283 11.6451C9.38973 11.4817 9.22873 11.3553 9.04528 11.2658C8.86236 11.1699 8.67148 11.1316 8.47263 11.1508C8.2743 11.1636 8.08128 11.2496 7.89357 11.4088C7.70932 11.5651 7.59295 11.7415 7.54446 11.938C7.49649 12.1281 7.50313 12.3227 7.56438 12.5217C7.62616 12.7144 7.72633 12.8924 7.8649 13.0558ZM14.8039 15.2125L14.4589 14.8057C14.2172 14.5207 14.0586 14.2069 13.9833 13.8644C13.908 13.5218 13.9263 13.1806 14.0384 12.8405C14.1504 12.5005 14.3663 12.1948 14.6862 11.9236C15.0129 11.6465 15.3515 11.4819 15.7018 11.4298C16.0556 11.3748 16.3953 11.4124 16.7209 11.5427C17.0465 11.6729 17.3302 11.8806 17.5719 12.1657L17.9169 12.5724C18.1586 12.8574 18.3172 13.1712 18.3925 13.5137C18.4713 13.8533 18.4547 14.1931 18.3426 14.5332C18.2341 14.8703 18.0181 15.1759 17.6949 15.4501C17.3716 15.7243 17.033 15.8889 16.6792 15.9439C16.3254 15.9989 15.984 15.9627 15.6549 15.8354C15.3293 15.7052 15.0456 15.4975 14.8039 15.2125ZM15.1837 14.191L15.5287 14.5978C15.6643 14.7577 15.8235 14.8856 16.0065 14.9815C16.1899 15.0709 16.3825 15.1078 16.5843 15.092C16.7832 15.0728 16.9765 14.9836 17.1642 14.8244C17.3519 14.6652 17.4697 14.4905 17.5177 14.3004C17.5662 14.1039 17.5596 13.9093 17.4978 13.7167C17.436 13.5241 17.3358 13.346 17.1973 13.1827L16.8523 12.7759C16.7138 12.6125 16.5528 12.4861 16.3693 12.3967C16.1894 12.3042 15.9999 12.2677 15.8011 12.2869C15.6028 12.2997 15.408 12.3872 15.2168 12.5493C15.0326 12.7056 14.9162 12.8819 14.8677 13.0785C14.8197 13.2686 14.8249 13.4614 14.8832 13.657C14.945 13.8496 15.0452 14.0277 15.1837 14.191ZM12.3081 8.63322L13.6331 17.7114L12.7989 17.8272L11.4739 8.74898L12.3081 8.63322Z" fill="#FF6C86"/>
<path d="M2.04013 12.7091C1.66894 12.2714 1.48334 12.0525 1.35813 11.8046C1.24711 11.5849 1.17138 11.349 1.13371 11.1057C1.09122 10.8312 1.11473 10.5453 1.16175 9.9733L1.59184 4.74154C1.6995 3.43188 1.75333 2.77705 2.04933 2.29778C2.3097 1.8762 2.69685 1.54787 3.15529 1.35984C3.67647 1.14609 4.33129 1.19992 5.64096 1.30758L10.8727 1.73766C11.4447 1.78468 11.7307 1.80819 11.9945 1.89493C12.2284 1.97183 12.4487 2.08506 12.6474 2.23048C12.8715 2.39449 13.0571 2.61334 13.4283 3.05103L21.6576 12.7545C22.9325 14.2578 23.57 15.0095 23.7644 15.8318C23.9354 16.5551 23.873 17.314 23.5862 17.9997C23.2601 18.7792 22.5084 19.4166 21.0051 20.6916L18.2065 23.065C16.7032 24.34 15.9515 24.9774 15.1292 25.1718C14.4059 25.3428 13.647 25.2804 12.9613 24.9936C12.1818 24.6675 11.5444 23.9159 10.2694 22.4126L2.04013 12.7091Z" stroke="#FF6C86" stroke-width="1.40781" stroke-linecap="round" stroke-linejoin="round"/>
</svg>
