<svg width="70" height="72" viewBox="0 0 70 72" fill="none" xmlns="http://www.w3.org/2000/svg">
<path d="M24.1022 29.6278L31.4696 36.9952L48.0463 20.4185M16.7348 57.2555V65.8588C16.7348 67.8217 16.7348 68.8031 17.1372 69.3072C17.4871 69.7456 18.0177 70.0006 18.5787 70C19.2236 69.9993 19.99 69.3862 21.5227 68.16L30.31 61.1302C32.1051 59.6941 33.0027 58.9761 34.0021 58.4655C34.8888 58.0124 35.8327 57.6814 36.8081 57.4812C37.9075 57.2555 39.0569 57.2555 41.3558 57.2555H50.6249C56.8141 57.2555 59.9087 57.2555 62.2726 56.051C64.352 54.9915 66.0426 53.3009 67.1021 51.2215C68.3066 48.8576 68.3066 45.763 68.3066 39.5738V19.6818C68.3066 13.4926 68.3066 10.398 67.1021 8.03401C66.0426 5.95461 64.352 4.26401 62.2726 3.2045C59.9087 2 56.8141 2 50.6249 2H19.6818C13.4926 2 10.398 2 8.03401 3.2045C5.95461 4.26401 4.26401 5.95461 3.2045 8.03401C2 10.398 2 13.4926 2 19.6818V42.5207C2 45.9465 2 47.6593 2.37656 49.0647C3.39842 52.8783 6.37722 55.8571 10.1909 56.879C11.5962 57.2555 13.3091 57.2555 16.7348 57.2555Z" stroke="#FF6C86" stroke-width="3" stroke-linecap="round" stroke-linejoin="round"/>
</svg>
