<svg width="82" height="82" viewBox="0 0 82 82" fill="none" xmlns="http://www.w3.org/2000/svg">
<path d="M17.6 72.5124H27.7801C29.1074 72.5124 30.4266 72.671 31.7134 72.988L42.4699 75.6115C44.8038 76.1822 47.2352 76.2377 49.5935 75.778L61.4866 73.4557C64.6283 72.8414 67.5184 71.3315 69.7833 69.1201L78.1978 60.9047C80.6007 58.5625 80.6007 54.7619 78.1978 52.4158C76.0343 50.3035 72.6084 50.0657 70.1608 51.857L60.3541 59.0381C58.9497 60.0685 57.2408 60.6233 55.4832 60.6233H46.0134L52.0412 60.623C55.4386 60.623 58.1906 57.9361 58.1906 54.619V53.4182C58.1906 50.6639 56.2707 48.2623 53.5349 47.5965L44.2315 45.3256C42.7175 44.9571 41.1669 44.7708 39.6082 44.7708C35.8455 44.7708 29.0344 47.8977 29.0344 47.8977L17.6 52.6969M2 51.0338L2 73.737C2 75.9293 2 77.0254 2.42507 77.8627C2.79898 78.5993 3.3956 79.1981 4.12944 79.5734C4.96369 80 6.05579 80 8.24 80H11.36C13.5442 80 14.6363 80 15.4706 79.5734C16.2044 79.1981 16.801 78.5993 17.1749 77.8627C17.6 77.0254 17.6 75.9293 17.6 73.737V51.0338C17.6 48.8415 17.6 47.7454 17.1749 46.9081C16.801 46.1716 16.2044 45.5727 15.4706 45.1974C14.6363 44.7708 13.5442 44.7708 11.36 44.7708H8.24C6.0558 44.7708 4.96369 44.7708 4.12944 45.1974C3.39561 45.5727 2.79898 46.1715 2.42507 46.9081C2 47.7454 2 48.8415 2 51.0338ZM61.2463 7.94555C58.9188 3.05707 53.5525 0.467286 48.3337 2.96695C43.1149 5.46661 40.8916 11.3946 43.0766 16.5985C44.427 19.8147 48.2959 26.0602 51.0545 30.3622C52.0738 31.9517 52.5835 32.7465 53.3279 33.2114C53.9664 33.6102 54.7657 33.8252 55.5173 33.8003C56.3936 33.7712 57.2309 33.3386 58.9055 32.4736C63.4376 30.1323 69.8996 26.6652 72.6712 24.5576C77.1559 21.1473 78.2668 14.8791 74.9092 10.114C71.5516 5.34896 65.6974 4.88008 61.2463 7.94555Z" stroke="#FF6C86" stroke-width="3" stroke-linecap="round" stroke-linejoin="round"/>
</svg>
