<svg width="91" height="82" viewBox="0 0 91 82" fill="none" xmlns="http://www.w3.org/2000/svg">
<path d="M82.1667 23.6667V59.2C82.1667 66.4807 82.1667 70.121 80.7497 72.9019C79.5034 75.348 77.5146 77.3367 75.0685 78.5831C72.2877 80 68.6473 80 61.3667 80H29.3C22.0193 80 18.379 80 15.5981 78.5831C13.152 77.3367 11.1633 75.348 9.91691 72.9019C8.5 70.121 8.5 66.4807 8.5 59.2V23.6667M8.93333 2H81.7333C84.1602 2 85.3737 2 86.3006 2.47231C87.116 2.88776 87.7789 3.55067 88.1944 4.36604C88.6667 5.29299 88.6667 6.50644 88.6667 8.93333V16.7333C88.6667 19.1602 88.6667 20.3737 88.1944 21.3006C87.7789 22.116 87.116 22.7789 86.3006 23.1944C85.3737 23.6667 84.1602 23.6667 81.7333 23.6667H8.93334C6.50644 23.6667 5.29299 23.6667 4.36604 23.1944C3.55067 22.7789 2.88776 22.116 2.47231 21.3006C2 20.3737 2 19.1602 2 16.7333V8.93333C2 6.50644 2 5.29299 2.47231 4.36604C2.88776 3.55067 3.55067 2.88776 4.36604 2.47231C5.29299 2 6.50644 2 8.93333 2ZM34.9333 38.8333H55.7333C58.1602 38.8333 59.3737 38.8333 60.3006 39.3056C61.116 39.7211 61.7789 40.384 62.1944 41.1994C62.6667 42.1263 62.6667 43.3398 62.6667 45.7667V49.2333C62.6667 51.6602 62.6667 52.8737 62.1944 53.8006C61.7789 54.616 61.116 55.2789 60.3006 55.6944C59.3737 56.1667 58.1602 56.1667 55.7333 56.1667H34.9333C32.5064 56.1667 31.293 56.1667 30.366 55.6944C29.5507 55.2789 28.8878 54.616 28.4723 53.8006C28 52.8737 28 51.6602 28 49.2333V45.7667C28 43.3398 28 42.1263 28.4723 41.1994C28.8878 40.384 29.5507 39.7211 30.366 39.3056C31.293 38.8333 32.5064 38.8333 34.9333 38.8333Z" stroke="#FF6C86" stroke-width="3" stroke-linecap="round" stroke-linejoin="round"/>
</svg>
