<svg width="29" height="29" viewBox="0 0 29 29" fill="none" xmlns="http://www.w3.org/2000/svg">
<path d="M6.17853 23.9724C6.94502 22.1666 8.7346 20.9 10.82 20.9H18.38C20.4654 20.9 22.255 22.1666 23.0215 23.9724M19.64 11.45C19.64 14.2335 17.3835 16.49 14.6 16.49C11.8165 16.49 9.56 14.2335 9.56 11.45C9.56 8.66648 11.8165 6.41 14.6 6.41C17.3835 6.41 19.64 8.66648 19.64 11.45ZM27.2 14.6C27.2 21.5588 21.5588 27.2 14.6 27.2C7.64121 27.2 2 21.5588 2 14.6C2 7.64121 7.64121 2 14.6 2C21.5588 2 27.2 7.64121 27.2 14.6Z" stroke="#858D97" stroke-width="2.1" stroke-linecap="round" stroke-linejoin="round"/>
</svg>
