<svg width="67" height="67" viewBox="0 0 67 67" fill="none" xmlns="http://www.w3.org/2000/svg">
<path d="M12.4463 56.931C14.3626 52.4164 18.8365 49.25 24.05 49.25H42.95C48.1635 49.25 52.6374 52.4164 54.5537 56.931M46.1 25.625C46.1 32.5838 40.4588 38.225 33.5 38.225C26.5412 38.225 20.9 32.5838 20.9 25.625C20.9 18.6662 26.5412 13.025 33.5 13.025C40.4588 13.025 46.1 18.6662 46.1 25.625ZM65 33.5C65 50.897 50.897 65 33.5 65C16.103 65 2 50.897 2 33.5C2 16.103 16.103 2 33.5 2C50.897 2 65 16.103 65 33.5Z" stroke="#FF6C86" stroke-width="2.1" stroke-linecap="round" stroke-linejoin="round"/>
</svg>
