<svg width="62" height="62" viewBox="0 0 62 62" fill="none" xmlns="http://www.w3.org/2000/svg">
<path d="M10 37.8591C4.44591 40.3092 1 43.7235 1 47.5C1 54.9558 14.4315 61 31 61C47.5685 61 61 54.9558 61 47.5C61 43.7235 57.5541 40.3092 52 37.8591M49 19C49 31.1911 35.5 37 31 46C26.5 37 13 31.1911 13 19C13 9.05887 21.0589 1 31 1C40.9411 1 49 9.05887 49 19ZM34 19C34 20.6569 32.6569 22 31 22C29.3431 22 28 20.6569 28 19C28 17.3431 29.3431 16 31 16C32.6569 16 34 17.3431 34 19Z" stroke="#FF6C86" stroke-width="2" stroke-linecap="round" stroke-linejoin="round"/>
</svg>
