<svg width="26" height="26" viewBox="0 0 26 26" fill="none" xmlns="http://www.w3.org/2000/svg">
<path d="M23.0109 7.25283L12.6623 13.0075M12.6623 13.0075L2.31378 7.25283M12.6623 13.0075L12.6624 24.5845M15.0973 23.8398L13.6084 24.6677C13.2631 24.8597 13.0905 24.9557 12.9076 24.9934C12.7458 25.0267 12.5789 25.0267 12.4171 24.9934C12.2343 24.9557 12.0616 24.8597 11.7163 24.6677L2.70703 19.6578C2.34237 19.455 2.16003 19.3536 2.02726 19.2094C1.90981 19.0819 1.82092 18.9306 1.76654 18.7659C1.70508 18.5797 1.70508 18.3709 1.70508 17.9534V8.06163C1.70508 7.64408 1.70508 7.4353 1.76654 7.2491C1.82092 7.08437 1.90981 6.93316 2.02726 6.80558C2.16003 6.66137 2.34237 6.55998 2.70703 6.3572L11.7163 1.34727C12.0616 1.15527 12.2343 1.05926 12.4171 1.02163C12.5789 0.988315 12.7458 0.988315 12.9076 1.02163C13.0905 1.05926 13.2631 1.15527 13.6084 1.34727L22.6177 6.35719C22.9824 6.55998 23.1647 6.66137 23.2975 6.80558C23.4149 6.93315 23.5038 7.08436 23.5582 7.2491C23.6196 7.4353 23.6196 7.64408 23.6196 8.06163L23.6196 13.6168M7.18372 3.86778L18.141 9.96093M17.5323 20.3193L19.9672 22.7565L24.8371 17.882" stroke="white" stroke-width="1.77939" stroke-linecap="round" stroke-linejoin="round"/>
</svg>
