<svg width="26" height="26" viewBox="0 0 26 26" fill="none" xmlns="http://www.w3.org/2000/svg">
<path d="M23.0109 7.25277L12.6623 13.0074M12.6623 13.0074L2.31378 7.25277M12.6623 13.0074L12.6624 24.5844M15.0973 23.8397L13.6084 24.6677C13.2631 24.8597 13.0905 24.9557 12.9076 24.9933C12.7458 25.0266 12.5789 25.0266 12.4171 24.9933C12.2343 24.9557 12.0616 24.8597 11.7163 24.6677L2.70703 19.6578C2.34237 19.455 2.16003 19.3536 2.02726 19.2094C1.90981 19.0818 1.82092 18.9306 1.76654 18.7659C1.70508 18.5797 1.70508 18.3709 1.70508 17.9533V8.06157C1.70508 7.64402 1.70508 7.43524 1.76654 7.24904C1.82092 7.08431 1.90981 6.9331 2.02726 6.80552C2.16003 6.66131 2.34237 6.55992 2.70703 6.35714L11.7163 1.34721C12.0616 1.15521 12.2343 1.0592 12.4171 1.02157C12.5789 0.988254 12.7458 0.988254 12.9076 1.02157C13.0905 1.0592 13.2631 1.15521 13.6084 1.34721L22.6177 6.35713C22.9824 6.55992 23.1647 6.66131 23.2975 6.80552C23.4149 6.93309 23.5038 7.0843 23.5582 7.24903C23.6196 7.43524 23.6196 7.64402 23.6196 8.06157L23.6196 13.6168M7.18372 3.86772L18.141 9.96087M17.5323 20.3192L19.9672 22.7565L24.8371 17.882" stroke="white" stroke-width="1.77939" stroke-linecap="round" stroke-linejoin="round"/>
</svg>
