<svg width="87" height="87" viewBox="0 0 87 87" fill="none" xmlns="http://www.w3.org/2000/svg">
<path d="M74.3124 26.3818L43.4999 43.4999M43.4999 43.4999L12.6874 26.3818M43.4999 43.4999L43.5 77.9375M76.125 58.2123V28.7877C76.125 27.5457 76.125 26.9246 75.942 26.3707C75.7801 25.8807 75.5154 25.4309 75.1657 25.0514C74.7704 24.6224 74.2275 24.3208 73.1417 23.7176L46.3167 8.81485C45.2887 8.2437 44.7746 7.95813 44.2303 7.84617C43.7485 7.74708 43.2515 7.74708 42.7697 7.84617C42.2254 7.95813 41.7113 8.2437 40.6833 8.81485L13.8583 23.7176C12.7725 24.3208 12.2296 24.6224 11.8343 25.0514C11.4846 25.4309 11.2199 25.8807 11.058 26.3707C10.875 26.9246 10.875 27.5457 10.875 28.7877V58.2123C10.875 59.4543 10.875 60.0754 11.058 60.6293C11.2199 61.1193 11.4846 61.5691 11.8343 61.9486C12.2296 62.3776 12.7725 62.6792 13.8583 63.2824L40.6833 78.1851C41.7113 78.7563 42.2254 79.0419 42.7697 79.1538C43.2515 79.2529 43.7485 79.2529 44.2303 79.1538C44.7746 79.0419 45.2887 78.7563 46.3167 78.1851L73.1417 63.2824C74.2275 62.6792 74.7704 62.3776 75.1657 61.9486C75.5154 61.5691 75.7801 61.1193 75.942 60.6293C76.125 60.0754 76.125 59.4543 76.125 58.2123Z" stroke="#FF6C86" stroke-width="2" stroke-linecap="round" stroke-linejoin="round"/>
<path d="M59.8125 34.4375L27.1875 16.3125" stroke="#FF6C86" stroke-width="2" stroke-linecap="round" stroke-linejoin="round"/>
</svg>
