<svg width="27" height="22" viewBox="0 0 27 22" fill="none" xmlns="http://www.w3.org/2000/svg">
<path d="M18.5183 15.5619V4.90535C18.5183 3.68734 18.5183 3.07834 18.2565 2.61312C18.0262 2.20391 17.6587 1.8712 17.2067 1.6627C16.6929 1.42566 16.0202 1.42566 14.6749 1.42566H5.5466C4.20126 1.42566 3.52859 1.42566 3.01473 1.6627C2.56274 1.8712 2.19525 2.20391 1.96495 2.61312C1.70312 3.07834 1.70312 3.68734 1.70312 4.90535V12.0822C1.70312 13.3002 1.70312 13.9092 1.96495 14.3744C2.19525 14.7837 2.56274 15.1164 3.01473 15.3249C3.52859 15.5619 4.20126 15.5619 5.5466 15.5619H18.5183ZM18.5183 15.5619H23.8031C24.4758 15.5619 24.8121 15.5619 25.069 15.4434C25.295 15.3391 25.4788 15.1728 25.5939 14.9682C25.7249 14.7356 25.7249 14.4311 25.7249 13.8221V10.8456C25.7249 10.5796 25.7249 10.4466 25.6917 10.3215C25.6622 10.2105 25.6137 10.1044 25.5479 10.0071C25.4736 9.8974 25.3697 9.80336 25.162 9.6153L22.6845 7.37226C22.4767 7.1842 22.3729 7.09016 22.2517 7.02292C22.1442 6.96329 22.027 6.91936 21.9045 6.89272C21.7662 6.86268 21.6194 6.86268 21.3256 6.86268H18.5183M10.1107 18.2804C10.1107 19.7818 8.76637 20.9989 7.10801 20.9989C5.44966 20.9989 4.1053 19.7818 4.1053 18.2804C4.1053 16.779 5.44966 15.5619 7.10801 15.5619C8.76637 15.5619 10.1107 16.779 10.1107 18.2804ZM23.3227 18.2804C23.3227 19.7818 21.9783 20.9989 20.32 20.9989C18.6616 20.9989 17.3172 19.7818 17.3172 18.2804C17.3172 16.779 18.6616 15.5619 20.32 15.5619C21.9783 15.5619 23.3227 16.779 23.3227 18.2804Z" stroke="white" stroke-width="1.77939" stroke-linecap="round" stroke-linejoin="round"/>
</svg>
